<svg width="55" height="55" viewBox="0 0 55 55" fill="none" xmlns="http://www.w3.org/2000/svg">
<path fill-rule="evenodd" clip-rule="evenodd" d="M12.8648 5.36033C17.305 2.39354 22.5251 0.810059 27.8652 0.810059C31.411 0.809708 34.9221 1.50791 38.198 2.86466C41.474 4.22153 44.4505 6.21027 46.9578 8.71752C49.465 11.2248 51.4538 14.2014 52.8106 17.4773C54.1674 20.7531 54.8655 24.2643 54.8652 27.8101C54.8652 33.1502 53.2817 38.3703 50.3149 42.8105C47.3481 47.2506 43.1313 50.7112 38.1977 52.7548C33.2641 54.7984 27.8353 55.333 22.5978 54.2912C17.3603 53.2494 12.5494 50.6779 8.77336 46.9019C4.99734 43.1259 2.42584 38.315 1.38404 33.0775C0.342243 27.84 0.876933 22.4111 2.9205 17.4776C4.96406 12.544 8.42472 8.32712 12.8648 5.36033ZM43.9903 17.5637C45.0232 19.6058 45.5233 21.8757 45.4443 24.1627C45.4443 25.1215 45.4443 30.5221 45.3804 31.4169C45.4016 33.2609 45.121 35.0961 44.5495 36.8494C44.3563 37.4521 44.0222 37.9998 43.5749 38.4473C42.9057 39.1017 42.0529 39.5365 41.1302 39.6936C35.3301 40.141 30.4247 40.2209 24.8324 40.141C21.3622 40.2152 17.8913 40.039 14.4465 39.6137C13.5459 39.4463 12.7165 39.012 12.0657 38.3674C11.5137 37.748 11.1239 37.0014 10.9313 36.1944C10.6588 35.1491 10.4981 34.0779 10.4519 32.9988C10.2201 29.5513 10.2201 26.0922 10.4519 22.6448L10.462 22.5232C10.619 20.6323 10.8018 18.4305 12.2095 17.1323C12.8559 16.52 13.6665 16.1093 14.5424 15.9499C18.9727 15.5538 23.4209 15.3938 27.8682 15.4706C32.3318 15.3972 36.7961 15.5625 41.242 15.9658C42.3169 16.1604 43.2895 16.7258 43.9903 17.5637ZM24.2571 22.4851V32.3756C25.8635 31.5064 27.5151 30.6674 29.093 29.8659C30.7639 29.0171 32.3521 28.2103 33.7163 27.4543L24.2571 22.4851Z" fill="#FFBF40"/>
</svg>
