<svg width="55" height="55" viewBox="0 0 55 55" fill="none" xmlns="http://www.w3.org/2000/svg">
<path fill-rule="evenodd" clip-rule="evenodd" d="M12.8648 5.36038C17.305 2.39358 22.5251 0.810059 27.8652 0.810059C31.411 0.809765 34.9221 1.50794 38.198 2.86471C41.474 4.22148 44.4505 6.21028 46.9578 8.71752C49.465 11.2248 51.4538 14.2013 52.8106 17.4773C54.1674 20.7532 54.8655 24.2643 54.8652 27.8101C54.8652 33.1501 53.2817 38.3703 50.3149 42.8104C47.3481 47.2506 43.1313 50.7112 38.1977 52.7548C33.2641 54.7984 27.8353 55.333 22.5978 54.2912C17.3603 53.2495 12.5494 50.6779 8.77336 46.9019C4.99734 43.1259 2.42584 38.315 1.38404 33.0775C0.342243 27.84 0.876933 22.4112 2.9205 17.4776C4.96406 12.544 8.42472 8.32718 12.8648 5.36038ZM41.7604 38.1856H38.4536C37.5763 38.1856 37.1282 37.6868 36.1662 36.616C35.7556 36.1588 35.2512 35.5974 34.5799 34.926C32.6193 33.0365 31.7926 32.8002 31.2966 32.8002C30.6116 32.8002 30.4226 32.9891 30.4226 33.934V36.9102C30.4226 37.7133 30.1628 38.1856 28.0606 38.1856C26.0207 38.0486 24.0425 37.4289 22.289 36.3776C20.5355 35.3263 19.0568 33.8735 17.9747 32.1388C15.4058 28.9413 13.6184 25.1886 12.7546 21.179C12.7546 20.6829 12.9435 20.2341 13.8884 20.2341H17.1952C18.0456 20.2341 18.3527 20.6121 18.6833 21.4861C20.2894 26.2101 23.0295 30.3201 24.1396 30.3201C24.5648 30.3201 24.7537 30.1312 24.7537 29.0682V24.2024C24.6666 22.8376 24.1868 22.2403 23.83 21.7961C23.6063 21.5177 23.431 21.2995 23.431 20.9901C23.4465 20.7782 23.5441 20.5807 23.7028 20.4396C23.8616 20.2985 24.0691 20.2248 24.2813 20.2341H29.4779C30.1865 20.2341 30.4226 20.5884 30.4226 21.4388V28.0053C30.4226 28.7139 30.7297 28.9501 30.9423 28.9501C31.3674 28.9501 31.6981 28.7139 32.4776 27.9345C34.1526 25.8918 35.5212 23.6161 36.5403 21.179C36.6443 20.8857 36.8415 20.6346 37.1017 20.464C37.3619 20.2934 37.6708 20.2126 37.9812 20.2341H41.288C42.2801 20.2341 42.4927 20.7302 42.2801 21.4388C41.0768 24.1333 39.5881 26.6911 37.8395 29.0682C37.4852 29.6115 37.3435 29.8949 37.8395 30.5326C38.0084 30.786 38.3931 31.1627 38.8329 31.5934C39.2541 32.0058 39.7258 32.4677 40.107 32.9183C41.2408 34.0492 42.1822 35.3577 42.8941 36.7921C43.1776 37.7133 42.7052 38.1856 41.7604 38.1856Z" fill="#FFBF40"/>
</svg>
