<svg width="117" height="89" viewBox="0 0 117 89" fill="none" xmlns="http://www.w3.org/2000/svg">
<path d="M16.8652 72.2504H10.582V88.2817H7.12253V72.2504H0.865234V69.2817H16.8652V72.2504Z" fill="#545454"/>
<path d="M32.1609 83.8633H22.4809L20.5706 88.2643H16.8652L25.579 69.2817H29.1248L37.8652 88.2817H34.0978L32.1609 83.8633ZM30.9598 81.0975L27.3076 72.7912L23.6865 81.0975H30.9598Z" fill="#545454"/>
<path d="M54.9287 80.0636C55.6675 81.1019 55.9875 82.387 55.8231 83.6563C55.6586 84.9257 55.0223 86.0835 54.0441 86.8932C52.8303 87.8189 51.0698 88.2817 48.7624 88.2817H39.8652V69.2817H48.2558C50.3655 69.2817 52.0087 69.7069 53.1853 70.5571C53.7576 70.9585 54.22 71.5004 54.5294 72.1323C54.8388 72.7641 54.9851 73.4652 54.9544 74.1699C54.99 75.0807 54.7427 75.9798 54.2473 76.7404C53.752 77.5011 53.0335 78.0849 52.1934 78.4096C53.2565 78.6494 54.2154 79.2293 54.9287 80.0636ZM43.2962 77.3867H47.9595C48.8682 77.4492 49.7723 77.2109 50.5359 76.7076C50.8335 76.4706 51.0697 76.1636 51.2238 75.8132C51.3779 75.4627 51.4454 75.0795 51.4204 74.6966C51.4446 74.312 51.3768 73.9271 51.2228 73.5747C51.0688 73.2223 50.8332 72.9129 50.5359 72.6726C49.7757 72.1605 48.87 71.9173 47.9595 71.9805H43.2962V77.3867ZM52.3565 82.7363C52.3565 80.8907 51.1227 79.9679 48.6551 79.9679H43.2962V85.5612H48.6551C51.1256 85.5612 52.3594 84.6196 52.3565 82.7363Z" fill="#545454"/>
<path d="M60.8652 69.2817H64.3506V82.7631L74.5759 69.2817H77.8652V88.2817H74.3798V74.8004L64.1546 88.2817H60.8652V69.2817Z" fill="#545454"/>
<path d="M96.1609 83.8633H86.4809L84.5706 88.2643H80.8652L89.579 69.2817H93.1248L101.865 88.2817H98.1023L96.1609 83.8633ZM94.9731 81.0975L91.3209 72.7912L87.7086 81.0975H94.9731Z" fill="#545454"/>
<path d="M116.865 72.2504H110.595V88.2817H107.109V72.2504H100.865V69.2817H116.865V72.2504Z" fill="#545454"/>
<path d="M53.8652 24.3368C51.663 24.9673 49.4307 25.4904 47.1983 25.9152C41.4592 27.0299 35.6168 27.4649 29.7832 27.2119C29.4758 27.194 29.1698 27.1717 28.8652 27.1449C29.0403 26.7652 29.239 26.3978 29.46 26.0449C32.5887 21.1264 38.4067 16.6103 43.8023 14.8665C46.0562 14.1958 48.4739 13.847 50.3917 15.2599C52.4603 16.9099 53.4041 21.2158 53.8652 24.3368Z" fill="#FFBF40"/>
<path d="M55.8652 33.2817C55.8652 34.6166 55.821 35.9202 55.7457 37.2239C55.7058 37.7667 55.6483 38.314 55.5774 38.8524C54.7672 45.5798 51.9513 51.7956 47.9974 57.2817C42.9449 55.7063 38.4084 52.7912 34.8656 48.8433C31.3227 44.8953 28.9044 40.0606 27.8652 34.8479C31.8576 35.3644 35.8878 35.5237 39.9082 35.324C45.2759 35.1065 50.6147 34.4232 55.8652 33.2817V33.2817Z" fill="#FFBF40"/>
<path d="M55.844 10.9178C52.4398 7.46031 47.1732 7.14283 42.7763 8.25183C39.416 9.03465 35.4803 10.8612 31.8652 13.3054C34.3814 9.51065 37.766 6.35699 41.7442 4.10051C45.7225 1.84402 50.1822 0.548346 54.7611 0.318701C59.3401 0.0890563 63.9092 0.931918 68.0973 2.77883C72.2855 4.62575 75.9747 7.42465 78.8652 10.9482C76.8857 12.9047 74.7221 14.6697 72.4038 16.2192C68.6173 18.7258 64.5338 20.7619 60.2453 22.2817C59.7534 18.2111 58.6904 13.8273 55.844 10.9178Z" fill="#FFBF40"/>
<path d="M84.8652 29.8287C84.8619 34.282 83.8591 38.6766 81.9323 42.6824C80.0054 46.6883 77.2046 50.2013 73.7401 52.9575C70.2757 55.7138 66.2377 57.6417 61.9294 58.5964C57.6211 59.5511 53.1546 59.5078 48.8652 58.4698C49.1554 58.2168 49.4367 57.9549 49.7181 57.6886C53.3418 54.2381 56.1202 49.9833 57.8334 45.2611C58.6295 43.0578 59.1924 40.7755 59.5127 38.4526C59.7369 36.5396 59.8908 34.64 59.9523 32.7359C67.7159 30.4546 75.0794 26.9305 81.4626 21.813C82.0781 21.3203 82.6848 20.8099 83.2738 20.2817C84.324 23.3532 84.8618 26.5794 84.8652 29.8287Z" fill="#FFBF40"/>
</svg>
