<svg width="167" height="55" viewBox="0 0 167 55" fill="none" xmlns="http://www.w3.org/2000/svg">
<path d="M159.53 10.8317L166.798 8.17725L166.865 8.25467L160.556 18.9609L159.53 10.8317Z" fill="#0C94FF"/>
<path d="M120.548 54.0608H113.743C109.49 54.0608 105.232 53.2202 102.473 50.2672C100.132 47.3086 99.2792 43.078 99.491 39.2899C99.4477 36.7552 99.9121 34.2371 100.857 31.8819C101.803 29.5266 103.21 27.3811 104.998 25.5698C108.832 21.7706 112.021 20.7144 116.909 20.5098H124.996L120.743 24.5191H116.702C111.179 24.5191 109.262 26.8417 107.133 29.1588C104.58 32.1119 103.727 35.0705 103.727 38.8697C103.521 41.8227 104.156 45.4118 106.068 47.7178C107.556 49.6202 109.897 50.2561 112.238 50.2561H120.749L120.548 54.0608Z" fill="#010101"/>
<path d="M94.4079 20.2939L89.949 54.0607H85.9025C85.9025 54.0607 88.8844 31.6915 89.308 28.108L71.2327 51.1131C69.1035 53.8505 66.7737 54.0607 64.2043 54.0607L68.6632 20.2939H72.6707L69.0757 47.1093L90.3447 20.305L94.4079 20.2939Z" fill="#010101"/>
<path d="M21.6383 54.0605H14.8329C10.5802 54.0605 6.32192 53.2199 3.55739 50.2669C1.22204 47.3083 0.369271 43.0777 0.581069 39.2896C0.540637 36.7533 1.0086 34.2343 1.95777 31.879C2.90694 29.5237 4.31839 27.379 6.11012 25.5695C10.151 21.5602 13.3559 20.5095 18.2384 20.2993H26.3202L22.0619 24.3031H18.0489C12.5198 24.3031 10.6081 26.6257 8.47892 28.9484C5.92619 31.907 5.07343 34.8545 5.07343 38.6537C4.86163 41.6123 5.50259 45.1958 7.41435 47.5018C9.11432 49.194 11.4608 49.8244 13.7962 50.0401H22.3071L21.6383 54.0605Z" fill="#010101"/>
<path d="M46.101 35.07H35.6783L37.172 24.0928H52.6946L56.9529 20.0835H33.5436L29.2965 51.9479L29.0847 54.0604H45.042C47.0044 54.057 48.9497 53.699 50.7829 53.0041C53.971 51.9479 56.9529 48.1542 56.9529 44.355C57.1647 34.6442 49.5065 35.07 46.101 35.07ZM51.6301 47.9441C51.046 48.5005 50.4053 48.9954 49.7183 49.4206C48.9285 49.8253 48.0544 50.0412 47.1656 50.051H33.7665L35.2491 38.8692H48.8655C49.5454 38.874 50.2089 39.076 50.7744 39.4504C51.3399 39.8248 51.7827 40.3552 52.0481 40.9762C52.6637 42.054 52.9514 43.2857 52.8762 44.5224C52.801 45.759 52.3663 46.9475 51.6245 47.9441" fill="#010101"/>
<path d="M135.72 41.5304L160.701 20.0792L159.53 10.8384L135.642 41.4529L135.72 41.5304Z" fill="#0C94FF"/>
<path d="M160.701 20.0785L133.39 0.723145L148.823 30.2704L160.701 20.0785Z" fill="#0C94FF"/>
</svg>
