<svg width="306" height="75" viewBox="0 0 306 75" fill="none" xmlns="http://www.w3.org/2000/svg">
<path d="M122.55 29.3608H111.289V58.1083H105.035V29.3608H93.8226V23.9946H122.55V29.3608Z" fill="#545454"/>
<path d="M150.021 50.2162H132.637L129.204 58.1083H122.55L138.193 23.9946H144.554L160.254 58.1083H153.494L150.021 50.2162ZM147.882 45.2448L141.325 30.3386L134.817 45.2528L147.882 45.2448Z" fill="#545454"/>
<path d="M194.39 43.3696C195.618 44.8898 196.243 46.7749 196.155 48.6921C196.215 50.0273 195.933 51.3564 195.334 52.5645C194.735 53.7726 193.836 54.8236 192.716 55.6265C190.395 57.281 187.047 58.1083 182.672 58.1083H165.641V23.9946H181.643C185.66 23.9946 188.793 24.758 191.042 26.2848C192.128 27.0097 193.004 27.9845 193.59 29.1187C194.175 30.2529 194.45 31.5097 194.39 32.7724C194.434 34.4098 193.961 36.0222 193.034 37.4007C192.078 38.7466 190.715 39.7822 189.125 40.3692C191.174 40.7996 193.022 41.8525 194.39 43.3696ZM172.211 38.5817H181.099C182.835 38.6871 184.561 38.2561 186.02 37.3528C186.584 36.9252 187.031 36.3737 187.322 35.7456C187.614 35.1174 187.741 34.4313 187.694 33.7459C187.74 33.0572 187.613 32.3679 187.321 31.736C187.03 31.1042 186.584 30.5483 186.02 30.1151C184.571 29.1966 182.844 28.7591 181.107 28.8703H172.186L172.211 38.5817ZM189.485 48.1575C189.485 44.8432 187.133 43.186 182.43 43.186H172.186V53.2326H182.405C187.108 53.2326 189.46 51.5435 189.46 48.1654L189.485 48.1575Z" fill="#545454"/>
<path d="M203.361 23.9946H209.586V48.2133L227.963 23.9946H233.868V58.1083H227.628V33.9375L209.25 58.1083H203.345L203.361 23.9946Z" fill="#545454"/>
<path d="M266.702 50.2162H249.325L245.903 58.1083H239.254L254.884 23.9946H261.272L276.959 58.1083H270.213L266.702 50.2162ZM264.564 45.2448L258.021 30.3386L251.519 45.2528L264.564 45.2448Z" fill="#545454"/>
<path d="M305.686 29.3608H294.434V58.1083H288.172V29.3608H276.959V23.9946H305.686V29.3608Z" fill="#545454"/>
<path d="M34.5726 31.1246C31.7255 31.9218 28.8464 32.5516 25.9593 33.0858C18.5362 34.4596 10.9814 34.9945 3.4381 34.6802L2.25446 34.5925C2.48808 34.1171 2.75534 33.6589 3.05421 33.2213C7.60221 26.7583 14.0819 21.8925 21.5686 19.318C24.4797 18.5207 27.6068 18.0584 30.086 19.8122C32.7572 21.877 33.9808 27.2263 34.5726 31.1246Z" fill="#FFBF40"/>
<path d="M36.3681 41.9492C36.3681 43.6327 36.3165 45.3027 36.2133 46.9592C36.1562 47.6494 36.091 48.3477 35.9932 49.0379C34.9581 57.5882 31.3477 65.4969 26.2702 72.4719C19.7929 70.4655 13.9777 66.7576 9.43574 61.7381C4.89383 56.7186 1.79295 50.5729 0.459015 43.9467C5.57721 44.5928 10.7428 44.7858 15.8952 44.5232C22.7813 44.2562 29.6313 43.3949 36.3681 41.9492Z" fill="#FFBF40"/>
<path d="M37.0071 14.5148C32.5753 10.0134 25.7515 9.62196 20.0172 11.049C14.9382 12.3996 10.1399 14.636 5.84537 17.6545C9.11498 12.7011 13.5115 8.58469 18.6783 5.63931C23.845 2.69393 29.6365 1.00249 35.5828 0.702231C41.5291 0.401968 47.4628 1.50134 52.9025 3.91114C58.3421 6.32095 63.1345 9.97331 66.8908 14.5719C64.3276 17.1298 61.5241 19.4373 58.5188 21.4628C53.6006 24.7374 48.296 27.3969 42.7249 29.3811C42.086 24.0641 40.7016 18.3395 37.0071 14.5148Z" fill="#FFBF40"/>
<path d="M75.8681 37.6581C75.8656 43.1911 74.5669 48.6517 72.0695 53.6298C69.5721 58.6079 65.9409 62.974 61.4485 66.4003C56.9562 69.8266 51.7195 72.224 46.1318 73.4125C40.5441 74.6009 34.7505 74.5496 29.1863 73.2622C29.5626 72.9458 29.9308 72.6214 30.2907 72.289C34.9934 67.9942 38.5958 62.6979 40.8117 56.821C41.8487 54.0848 42.581 51.2495 42.9961 48.3631C43.2824 45.9895 43.487 43.6158 43.5933 41.2422C53.7109 38.5208 63.1838 33.9201 71.4829 27.6968C72.3011 27.0797 73.0701 26.4467 73.8309 25.79C75.186 29.6094 75.8745 33.6202 75.8681 37.6581Z" fill="#FFBF40"/>
</svg>
